<mxfile host="app.diagrams.net" modified="2021-01-03T10:25:23.522Z" agent="5.0 (Windows)" etag="8OjoMQQnxUPj5fVE2gtL" version="14.1.8" type="github">
  <diagram id="kgpKYQtTHZ0yAKxKKP6v" name="Page-1">
    <mxGraphModel dx="2062" dy="1124" grid="1" gridSize="10" guides="1" tooltips="1" connect="1" arrows="1" fold="1" page="1" pageScale="1" pageWidth="850" pageHeight="1100" math="0" shadow="0">
      <root>
        <mxCell id="0" />
        <mxCell id="1" parent="0" />
        <mxCell id="KAKw1ylooaKP6hKjpaHV-2" value="" style="endArrow=none;dashed=1;html=1;entryX=0.5;entryY=1;entryDx=0;entryDy=0;" parent="1" edge="1">
          <mxGeometry x="309.5" y="65" width="50" height="50" as="geometry">
            <mxPoint x="360" y="480" as="sourcePoint" />
            <mxPoint x="359.5" y="160" as="targetPoint" />
            <Array as="points" />
          </mxGeometry>
        </mxCell>
        <mxCell id="KAKw1ylooaKP6hKjpaHV-3" value="" style="points=[];perimeter=orthogonalPerimeter;rounded=0;shadow=0;strokeWidth=1;" parent="1" vertex="1">
          <mxGeometry x="355" y="180" width="10" height="280" as="geometry" />
        </mxCell>
        <mxCell id="KAKw1ylooaKP6hKjpaHV-5" value="Azure AD" style="shape=image;imageAspect=0;aspect=fixed;verticalLabelPosition=bottom;verticalAlign=top;image=https://seeklogo.com/images/A/azure-active-directory-logo-C196F4B2D3-seeklogo.com.png;" parent="1" vertex="1">
          <mxGeometry x="311" y="55.93" width="99.27" height="99.93" as="geometry" />
        </mxCell>
        <mxCell id="KAKw1ylooaKP6hKjpaHV-6" value="Web API&#xa;" style="shape=image;imageAspect=0;aspect=fixed;verticalLabelPosition=bottom;verticalAlign=top;image=https://upload.wikimedia.org/wikipedia/commons/thumb/e/ee/.NET_Core_Logo.svg/1200px-.NET_Core_Logo.svg.png;" parent="1" vertex="1">
          <mxGeometry x="502.64" y="55.92999999999995" width="90" height="90" as="geometry" />
        </mxCell>
        <mxCell id="KAKw1ylooaKP6hKjpaHV-7" value="Salesforce Platform" style="shape=image;imageAspect=0;aspect=fixed;verticalLabelPosition=bottom;verticalAlign=top;image=https://upload.wikimedia.org/wikipedia/en/thumb/8/83/Salesforce_logo.svg/1200px-Salesforce_logo.svg.png;" parent="1" vertex="1">
          <mxGeometry x="101" y="58.93" width="120" height="84" as="geometry" />
        </mxCell>
        <mxCell id="KAKw1ylooaKP6hKjpaHV-9" value="" style="endArrow=none;dashed=1;html=1;entryX=0.5;entryY=1;entryDx=0;entryDy=0;" parent="1" source="KAKw1ylooaKP6hKjpaHV-10" edge="1">
          <mxGeometry x="111" y="65" width="50" height="50" as="geometry">
            <mxPoint x="161" y="400" as="sourcePoint" />
            <mxPoint x="161" y="160" as="targetPoint" />
            <Array as="points" />
          </mxGeometry>
        </mxCell>
        <mxCell id="KAKw1ylooaKP6hKjpaHV-10" value="" style="points=[];perimeter=orthogonalPerimeter;rounded=0;shadow=0;strokeWidth=1;" parent="1" vertex="1">
          <mxGeometry x="156" y="180" width="10" height="280" as="geometry" />
        </mxCell>
        <mxCell id="KAKw1ylooaKP6hKjpaHV-11" value="" style="endArrow=none;dashed=1;html=1;entryX=0.5;entryY=1;entryDx=0;entryDy=0;" parent="1" target="KAKw1ylooaKP6hKjpaHV-10" edge="1">
          <mxGeometry x="111" y="65" width="50" height="50" as="geometry">
            <mxPoint x="161" y="480" as="sourcePoint" />
            <mxPoint x="161" y="160" as="targetPoint" />
            <Array as="points" />
          </mxGeometry>
        </mxCell>
        <mxCell id="KAKw1ylooaKP6hKjpaHV-12" value="Begin Auth Flow" style="endArrow=classic;html=1;labelPosition=center;verticalLabelPosition=top;align=center;verticalAlign=bottom;" parent="1" edge="1">
          <mxGeometry width="50" height="50" relative="1" as="geometry">
            <mxPoint x="166" y="186" as="sourcePoint" />
            <mxPoint x="351" y="186" as="targetPoint" />
          </mxGeometry>
        </mxCell>
        <mxCell id="KAKw1ylooaKP6hKjpaHV-13" value="" style="endArrow=none;dashed=1;html=1;entryX=0.5;entryY=1;entryDx=0;entryDy=0;" parent="1" source="KAKw1ylooaKP6hKjpaHV-21" edge="1">
          <mxGeometry x="497.13" y="65" width="50" height="50" as="geometry">
            <mxPoint x="547.13" y="400" as="sourcePoint" />
            <mxPoint x="547.13" y="160" as="targetPoint" />
            <Array as="points" />
          </mxGeometry>
        </mxCell>
        <mxCell id="KAKw1ylooaKP6hKjpaHV-21" value="" style="points=[];perimeter=orthogonalPerimeter;rounded=0;shadow=0;strokeWidth=1;" parent="1" vertex="1">
          <mxGeometry x="542.64" y="180" width="10" height="280" as="geometry" />
        </mxCell>
        <mxCell id="KAKw1ylooaKP6hKjpaHV-22" value="" style="endArrow=none;dashed=1;html=1;entryX=0.5;entryY=1;entryDx=0;entryDy=0;" parent="1" target="KAKw1ylooaKP6hKjpaHV-21" edge="1">
          <mxGeometry x="458.13" y="65" width="50" height="50" as="geometry">
            <mxPoint x="548" y="480" as="sourcePoint" />
            <mxPoint x="508.1300000000001" y="160" as="targetPoint" />
            <Array as="points" />
          </mxGeometry>
        </mxCell>
        <mxCell id="KAKw1ylooaKP6hKjpaHV-28" value="" style="endArrow=classic;html=1;dashed=1;entryX=1.3;entryY=0.132;entryDx=0;entryDy=0;entryPerimeter=0;" parent="1" target="KAKw1ylooaKP6hKjpaHV-10" edge="1">
          <mxGeometry width="50" height="50" relative="1" as="geometry">
            <mxPoint x="351" y="217" as="sourcePoint" />
            <mxPoint x="601" y="290" as="targetPoint" />
          </mxGeometry>
        </mxCell>
        <mxCell id="KAKw1ylooaKP6hKjpaHV-29" value="A" style="ellipse;whiteSpace=wrap;html=1;aspect=fixed;fillColor=#fff2cc;strokeColor=#d6b656;fontStyle=1" parent="1" vertex="1">
          <mxGeometry x="191" y="207" width="20" height="20" as="geometry" />
        </mxCell>
        <mxCell id="ahNHx-aY05KBnzxDTeBV-2" value="R" style="ellipse;whiteSpace=wrap;html=1;aspect=fixed;fillColor=#e1d5e7;strokeColor=#9673a6;fontStyle=1" vertex="1" parent="1">
          <mxGeometry x="211" y="207" width="20" height="20" as="geometry" />
        </mxCell>
        <mxCell id="ahNHx-aY05KBnzxDTeBV-3" value="Access / Refresh tokens are stored and managed by SF" style="text;html=1;strokeColor=none;fillColor=none;align=center;verticalAlign=middle;whiteSpace=wrap;rounded=0;" vertex="1" parent="1">
          <mxGeometry x="201" y="227" width="120" height="41" as="geometry" />
        </mxCell>
        <mxCell id="ahNHx-aY05KBnzxDTeBV-4" value="" style="endArrow=none;dashed=1;html=1;strokeWidth=2;" edge="1" parent="1">
          <mxGeometry width="50" height="50" relative="1" as="geometry">
            <mxPoint x="111" y="279" as="sourcePoint" />
            <mxPoint x="581" y="279" as="targetPoint" />
          </mxGeometry>
        </mxCell>
        <mxCell id="ahNHx-aY05KBnzxDTeBV-9" value="Auth Flow is configured in the UI before any requests are made" style="edgeLabel;html=1;align=center;verticalAlign=middle;resizable=0;points=[];fontStyle=1" vertex="1" connectable="0" parent="ahNHx-aY05KBnzxDTeBV-4">
          <mxGeometry x="-0.3711" y="-1" relative="1" as="geometry">
            <mxPoint x="108.00000000000001" y="9.31" as="offset" />
          </mxGeometry>
        </mxCell>
        <mxCell id="ahNHx-aY05KBnzxDTeBV-11" value="" style="endArrow=classic;html=1;labelPosition=center;verticalLabelPosition=top;align=center;verticalAlign=bottom;" edge="1" parent="1" source="KAKw1ylooaKP6hKjpaHV-10">
          <mxGeometry width="50" height="50" relative="1" as="geometry">
            <mxPoint x="237.64" y="329.5" as="sourcePoint" />
            <mxPoint x="542.64" y="329.5" as="targetPoint" />
          </mxGeometry>
        </mxCell>
        <mxCell id="ahNHx-aY05KBnzxDTeBV-13" value="Stored Token" style="edgeLabel;html=1;align=center;verticalAlign=middle;resizable=0;points=[];" vertex="1" connectable="0" parent="ahNHx-aY05KBnzxDTeBV-11">
          <mxGeometry x="-0.8557" y="-1" relative="1" as="geometry">
            <mxPoint x="-32" y="-10.5" as="offset" />
          </mxGeometry>
        </mxCell>
        <mxCell id="ahNHx-aY05KBnzxDTeBV-14" value="callout:Name/api/resource" style="edgeLabel;html=1;align=center;verticalAlign=middle;resizable=0;points=[];" vertex="1" connectable="0" parent="ahNHx-aY05KBnzxDTeBV-11">
          <mxGeometry x="0.1213" y="-2" relative="1" as="geometry">
            <mxPoint x="-16" y="-2" as="offset" />
          </mxGeometry>
        </mxCell>
        <mxCell id="ahNHx-aY05KBnzxDTeBV-12" value="A" style="ellipse;whiteSpace=wrap;html=1;aspect=fixed;fillColor=#fff2cc;strokeColor=#d6b656;fontStyle=1" vertex="1" parent="1">
          <mxGeometry x="511" y="319" width="20" height="20" as="geometry" />
        </mxCell>
        <mxCell id="ahNHx-aY05KBnzxDTeBV-18" value="" style="endArrow=classic;html=1;dashed=1;" edge="1" parent="1">
          <mxGeometry width="50" height="50" relative="1" as="geometry">
            <mxPoint x="541" y="360" as="sourcePoint" />
            <mxPoint x="166" y="360" as="targetPoint" />
          </mxGeometry>
        </mxCell>
        <mxCell id="ahNHx-aY05KBnzxDTeBV-19" value="200 OK or 401 Unauthorized" style="edgeLabel;html=1;align=center;verticalAlign=middle;resizable=0;points=[];" vertex="1" connectable="0" parent="ahNHx-aY05KBnzxDTeBV-18">
          <mxGeometry x="-0.2623" y="-1" relative="1" as="geometry">
            <mxPoint x="-41.37" as="offset" />
          </mxGeometry>
        </mxCell>
        <mxCell id="ahNHx-aY05KBnzxDTeBV-20" value="If 401 - RefreshToken" style="endArrow=classic;html=1;labelPosition=center;verticalLabelPosition=top;align=center;verticalAlign=bottom;" edge="1" parent="1">
          <mxGeometry x="-0.3405" width="50" height="50" relative="1" as="geometry">
            <mxPoint x="170" y="410" as="sourcePoint" />
            <mxPoint x="355" y="410" as="targetPoint" />
            <mxPoint as="offset" />
          </mxGeometry>
        </mxCell>
        <mxCell id="ahNHx-aY05KBnzxDTeBV-21" value="R" style="ellipse;whiteSpace=wrap;html=1;aspect=fixed;fillColor=#e1d5e7;strokeColor=#9673a6;fontStyle=1" vertex="1" parent="1">
          <mxGeometry x="321" y="399" width="20" height="20" as="geometry" />
        </mxCell>
        <mxCell id="ahNHx-aY05KBnzxDTeBV-22" value="" style="endArrow=classic;html=1;dashed=1;entryX=1.3;entryY=0.132;entryDx=0;entryDy=0;entryPerimeter=0;" edge="1" parent="1" source="KAKw1ylooaKP6hKjpaHV-3">
          <mxGeometry width="50" height="50" relative="1" as="geometry">
            <mxPoint x="348" y="438.53999999999996" as="sourcePoint" />
            <mxPoint x="166" y="438.5" as="targetPoint" />
          </mxGeometry>
        </mxCell>
        <mxCell id="ahNHx-aY05KBnzxDTeBV-23" value="A" style="ellipse;whiteSpace=wrap;html=1;aspect=fixed;fillColor=#fff2cc;strokeColor=#d6b656;fontStyle=1" vertex="1" parent="1">
          <mxGeometry x="191" y="429" width="20" height="20" as="geometry" />
        </mxCell>
        <mxCell id="ahNHx-aY05KBnzxDTeBV-30" value="" style="endArrow=classic;html=1;labelPosition=center;verticalLabelPosition=top;align=center;verticalAlign=bottom;" edge="1" parent="1">
          <mxGeometry width="50" height="50" relative="1" as="geometry">
            <mxPoint x="166" y="459" as="sourcePoint" />
            <mxPoint x="542.6399999999999" y="459" as="targetPoint" />
          </mxGeometry>
        </mxCell>
        <mxCell id="ahNHx-aY05KBnzxDTeBV-32" value="callout:Name/api/resource" style="edgeLabel;html=1;align=center;verticalAlign=middle;resizable=0;points=[];" vertex="1" connectable="0" parent="ahNHx-aY05KBnzxDTeBV-30">
          <mxGeometry x="0.1213" y="-2" relative="1" as="geometry">
            <mxPoint x="-16" y="-2" as="offset" />
          </mxGeometry>
        </mxCell>
        <mxCell id="ahNHx-aY05KBnzxDTeBV-33" value="A" style="ellipse;whiteSpace=wrap;html=1;aspect=fixed;fillColor=#fff2cc;strokeColor=#d6b656;fontStyle=1" vertex="1" parent="1">
          <mxGeometry x="509" y="448" width="20" height="20" as="geometry" />
        </mxCell>
      </root>
    </mxGraphModel>
  </diagram>
</mxfile>
